<svg width="800" height="800" viewBox="0 0 1024 1024" class="icon" xmlns="http://www.w3.org/2000/svg"><path d="M579.359 660.208a233.1 233.1 0 0 1-66.592 9.687c-22.985 0-45.3-3.357-66.56-9.687-116.11-34.494-201.916-157.095-201.916-303.13 0-172.824 120.172-312.88 268.476-312.88s268.54 140.056 268.54 312.88c0 146.035-85.869 268.636-201.948 303.13" fill="#5FCEFF"/><path d="m579.359 660.208 12.755 106.106H433.452l12.756-106.106a232.8 232.8 0 0 0 66.56 9.687c22.985 0 45.3-3.357 66.59-9.687" fill="#FF4893"/><path d="M512.767 692.273a255.5 255.5 0 0 1-72.943-10.613c-128.299-38.117-217.911-171.588-217.911-324.58 0-184.864 130.475-335.259 290.854-335.259 160.414 0 290.918 150.395 290.918 335.26 0 152.974-89.625 286.448-217.952 324.58a256.1 256.1 0 0 1-72.966 10.611m0-625.697c-135.699 0-246.097 130.318-246.097 290.502 0 133.33 76.45 249.16 185.912 281.68 39.04 11.626 81.298 11.626 120.405 0 109.481-32.536 185.945-148.366 185.945-281.68-.003-160.184-110.43-290.502-246.165-290.502" fill="#4F46A3"/><path d="M592.114 788.692H433.455a22.378 22.378 0 0 1-22.218-25.048l12.755-106.102c1.471-12.238 12.622-21.144 24.828-19.7 12.244 1.427 21.045 12.34 19.66 24.591l-.05.454-9.745 81.055h108.203l-9.745-81.055-.038-.332a22.38 22.38 0 0 1 19.594-24.85c12.282-1.473 23.398 7.318 24.85 19.594l.035.291 12.749 106.064a22.375 22.375 0 0 1-22.219 25.038" fill="#4F46A3"/><path d="M480.798 1012.859a22.38 22.38 0 0 1-22.378-22.379c0-30.866 26.243-45.312 43.609-54.871 9.085-5 20.39-11.224 20.39-15.588 0-4.415-11.33-10.65-20.438-15.662-17.346-9.549-43.564-23.98-43.564-54.798 0-30.866 26.243-45.313 43.609-54.872 9.085-5 20.39-11.224 20.39-15.588a22.378 22.378 0 1 1 44.756 0c0 30.818-26.214 45.246-43.564 54.798-9.108 5.01-20.438 11.25-20.438 15.662 0 4.364 11.308 10.588 20.39 15.588 17.369 9.559 43.612 24.006 43.612 54.872 0 30.818-26.214 45.245-43.564 54.798-9.108 5.01-20.438 11.25-20.438 15.661a22.37 22.37 0 0 1-22.372 22.379m31.97-417.74c-114.405 0-207.48-106.786-207.48-238.04a22.378 22.378 0 1 1 44.757 0c0 106.577 72.998 193.284 162.722 193.284a22.378 22.378 0 1 1 0 44.756M341.921 296.407a22.378 22.378 0 0 1-21.068-29.923c9.181-25.655 22.126-49.123 38.475-69.753a22.378 22.378 0 0 1 35.08 27.797c-13.313 16.797-23.882 35.988-31.413 57.036a22.39 22.39 0 0 1-21.074 14.843" fill="#4F46A3"/></svg>