<svg width="800" height="800" viewBox="0 0 64 64" xmlns="http://www.w3.org/2000/svg"><path d="M20.3 35.76a36.2 36.2 0 0 1 1.42-12.71 50.2 50.2 0 0 1 7.83-15.13C31.64 5 33 4.38 34.39 4.59s5.54 5.92 8 13.12 2.12 16.42 2.12 17.42v1.58s4.87-.66 6 4.92.25 10.5-1.58 13.67-4.71 3.46-5 3 1-5.17-.21-8.34-2.13-3.41-2.13-3.41a14.5 14.5 0 0 1-1.37 3 6.6 6.6 0 0 1-1.75.25s.08 2.08-.13 2.12-3.54 0-3.54 0-.71 6.67-1.25 7.13-3.66.5-3.66 0S28.76 52 28.76 52s-1.87-.16-1.92-.37-.37-2.21-.37-2.21A4.4 4.4 0 0 1 25 49c-.25-.25-2.17-3-2.17-3a11.87 11.87 0 0 0-2.5 5.5c-.25 2.79 1.63 5.91 1.46 6.2s-3 .71-6-3.91-3.5-9-2.29-12.88 4.39-5.32 6.8-5.15" fill="#1d1d1b"/><path d="M28.22 13.13c.17-.21 4.54-7.08 5.75-7s4.75 6.63 4.5 6.75a17.1 17.1 0 0 0-5.29-.5 23 23 0 0 0-4.96.75" fill="#e7413e"/><path d="M26.84 14.8a16.6 16.6 0 0 1 6.71-1.29c3.75.08 5.42.83 5.63 1.08a36.5 36.5 0 0 1 3 8.92 27.3 27.3 0 0 1 .41 4.83s-1.12-1.46-1.37-1.34-.38.67-.38.67a16 16 0 0 1 1.75 1.71c0 .21.13 2 .13 2s-2.13-2.71-2.38-2.58-.54.46-.41.62 2.71 2.92 2.83 3.21a9 9 0 0 1 0 1.83S39.51 31 39.34 31s-.62.42-.29.63a45 45 0 0 1 3.67 4.08c0 .21-.13 2.25-.13 2.25s-3.5-4.12-3.66-4.08-.42.42-.34.58 3.88 4.13 3.88 4.5a17 17 0 0 1-.42 2s-3.71-4.75-3.83-4.71-.54.34-.46.5 4.08 5 4 5.38a4.8 4.8 0 0 1-.54 1.62c-.17.09-3.62-4.54-3.79-4.54s-.42.46-.42.46a62 62 0 0 1 3.63 5.08c-.09.25-.46 1-.46 1s-3.04-3.83-3.18-3.87-.58.5-.42.67a40.5 40.5 0 0 1 3.34 4c-.09.21-.5 1.46-.5 1.46h-.63a20.6 20.6 0 0 0-2-2.59c-.25 0-.54.42-.54.59s1.71 2 1.54 2.08-2.46.08-2.46.08.5-8.62.09-9.29A2.25 2.25 0 0 0 33 37.67a18.7 18.7 0 0 0-4.79 1.54c-1 .55-.75 2.46-.63 3.21a50 50 0 0 1 .76 5.58 9.3 9.3 0 0 1-2.16 0c-.18-.12-3.67-3.91-4.18-10.87a40.4 40.4 0 0 1 2.71-17.21c1.43-3.62 2.13-5.12 2.13-5.12" fill="#a42116"/><path d="M29.43 40.42c.12-.62 4.21-1.29 4.37-.79s-1.21 17.83-1.46 18-.83.46-1 .13-2.12-16.3-1.91-17.34" fill="#e7413e"/><path d="M27.55 49.59c.21 0 .79-.21.88 0s.21 1.33.08 1.29-.87.17-1-.08a6.4 6.4 0 0 1 .04-1.21m7.67-.04a9.5 9.5 0 0 1 2.21.12c0 .17 0 1.34-.13 1.34a13.3 13.3 0 0 1-2.3-.09c0-.12.22-1.37.22-1.37" fill="#f2910d"/><path d="M44.55 38.26a10.2 10.2 0 0 1 3.09 1.29c1 .71 1.54 5.12 1.54 5.12S46.55 43 46.43 43s-.38.79-.13.91a25 25 0 0 1 2.88 1.71 23 23 0 0 1 0 2.29 14 14 0 0 0-2.5-1.46c-.13.17-.13.75.12.88A9.6 9.6 0 0 1 49.05 49a10.7 10.7 0 0 1-.12 1.92l-.09.38s-1.75-1.25-2-1.17-.5.42-.25.67 2 1.37 1.88 1.62a7.5 7.5 0 0 1-1.42 2.46 6.6 6.6 0 0 1-1.54 1.08s.88-5.66-.62-8.16-2.38-2.67-2.38-2.67a35 35 0 0 0 1.25-3.92c.58-2.29.79-2.95.79-2.95m-24.41-.96A21.6 21.6 0 0 0 21 42c.71 2.3 1 3 1 3s-1.54.58-2.67 3.87a9.36 9.36 0 0 0-.29 5.67s-2.5-1.46-3.83-7.17.88-9.49 4.93-10.07" fill="#e7413e"/><path d="m18.43 40.3.37.83a3 3 0 0 0-1.25.92c-.46.62-.21 1.58-.41 1.66s-.75.13-.84 0a5 5 0 0 1 .38-2.21 2.18 2.18 0 0 1 1.75-1.2m13.62-22.59c2.27-.81 6 .5 6.34 5.38s-5.25 8.25-8.46 5.29-3.13-8.79 2.12-10.67" fill="#1d1d1b"/><path d="M33.05 19a3.14 3.14 0 0 1 3.21 2.5 15 15 0 0 1 .29 3.13 24 24 0 0 0-2-3.33c-.25 0-.79.33-.67.5a28 28 0 0 1 2.21 3.87 3 3 0 0 1-3.71 1.75c-2.58-.75-3.62-4.08-3-5.87s1.96-2.42 3.67-2.55" fill="#ddc07c"/><path d="M31.39 20.67a.44.44 0 0 1 .58.42c0 .25-.92.92-.92 1.5s.21.75-.12.87-1.13.05-1.13-.2a3.7 3.7 0 0 1 .38-1.8 2 2 0 0 1 1.21-.79m1.12 2c0-.18.58-.54.83-.25S35 25 34.76 25.26s-.42.54-.67.37a12.5 12.5 0 0 1-1.58-2.96M32.05 24c.25-.09 1.13 1.75 1 1.88s-.58.33-.79.17a4.6 4.6 0 0 1-.92-1.42 1.84 1.84 0 0 1 .71-.63m.26-9a.49.49 0 0 1 .47.72.57.57 0 0 1-.94.05.54.54 0 0 1 .47-.77m2.81.05a.49.49 0 0 1 .48.72.57.57 0 0 1-.94.05.53.53 0 0 1 .46-.77m2.41 1.69a.49.49 0 0 1 .48.72.57.57 0 0 1-.94.05.54.54 0 0 1 .46-.77m1.57 2.75a.49.49 0 0 1 .48.72.58.58 0 0 1-.95.05.54.54 0 0 1 .47-.77m.54 3.06a.49.49 0 0 1 .48.72.57.57 0 0 1-.94.05.54.54 0 0 1 .46-.77m-.08 2.86a.48.48 0 0 1 .47.71.56.56 0 0 1-.94.05.53.53 0 0 1 .47-.76m-1.67 3.29a.49.49 0 0 1 .48.72.57.57 0 0 1-.94 0 .53.53 0 0 1 .46-.72m-3.06 1.39a.49.49 0 0 1 .47.72.56.56 0 0 1-.94.05.54.54 0 0 1 .47-.77m-4.07.19a.49.49 0 0 1 .48.72.57.57 0 0 1-.94.05.54.54 0 0 1 .46-.77m-3.1-2.19a.49.49 0 0 1 .48.72.56.56 0 0 1-.94.05.54.54 0 0 1 .46-.77M26 24.84a.49.49 0 0 1 .48.72.56.56 0 0 1-.94.05.54.54 0 0 1 .46-.77m.18-4.02a.49.49 0 0 1 .48.72.57.57 0 0 1-.94.05.54.54 0 0 1 .46-.77m1.75-3.14a.49.49 0 0 1 .48.72.57.57 0 0 1-.94 0 .53.53 0 0 1 .46-.72M30.14 16a.49.49 0 0 1 .48.72.57.57 0 0 1-.94 0 .53.53 0 0 1 .46-.72" fill="#1d1d1b"/></svg>